{
  "accessors": [
    {
      "bufferView": 1,
      "componentType": 5126,
      "count": 65532,
      "max": [
        239.89091491699219,
        543.44140625,
        120.12017059326172
      ],
      "min": [
        -111.64769744873047,
        -868.7840576171875,
        -158.02055358886719
      ],
      "type": "VEC3"
    },
    {
      "bufferView": 1,
      "byteOffset": 786384,
      "componentType": 5126,
      "count": 65532,
      "max": [
        0.99999690055847168,
        0.97721821069717407,
        0.99990731477737427
      ],
      "min": [
        -0.9999854564666748,
        -0.9999840259552002,
        -0.99999707937240601
      ],
      "type": "VEC3"
    },
    {
      "bufferView": 0,
      "componentType": 5125,
      "count": 373671,
      "max": [
        65531
      ],
      "min": [
        0
      ],
      "type": "SCALAR"
    },
    {
      "bufferView": 1,
      "byteOffset": 1572768,
      "componentType": 5126,
      "count": 65532,
      "max": [
        233.28048706054688,
        901.7255859375,
        172.05764770507812
      ],
      "min": [
        -246.43862915039062,
        -630.71697998046875,
        -166.53936767578125
      ],
      "type": "VEC3"
    },
    {
      "bufferView": 1,
      "byteOffset": 2359152,
      "componentType": 5126,
      "count": 65532,
      "max": [
        0.99998724460601807,
        0.99999946355819702,
        0.99998933076858521
      ],
      "min": [
        -0.99999451637268066,
        -0.99956005811691284,
        -0.99999207258224487
      ],
      "type": "VEC3"
    },
    {
      "bufferView": 0,
      "byteOffset": 1494684,
      "componentType": 5125,
      "count": 342765,
      "max": [
        65531
      ],
      "min": [
        0
      ],
      "type": "SCALAR"
    },
    {
      "bufferView": 1,
      "byteOffset": 3145536,
      "componentType": 5126,
      "count": 65532,
      "max": [
        245.81224060058594,
        907.69732666015625,
        145.03756713867188
      ],
      "min": [
        -245.29559326171875,
        -607.6153564453125,
        -166.53489685058594
      ],
      "type": "VEC3"
    },
    {
      "bufferView": 1,
      "byteOffset": 3931920,
      "componentType": 5126,
      "count": 65532,
      "max": [
        0.99995100498199463,
        0.99979937076568604,
        0.99990308284759521
      ],
      "min": [
        -0.99995845556259155,
        -0.99998742341995239,
        -0.9999922513961792
      ],
      "type": "VEC3"
    },
    {
      "bufferView": 0,
      "byteOffset": 2865744,
      "componentType": 5125,
      "count": 342723,
      "max": [
        65531
      ],
      "min": [
        0
      ],
      "type": "SCALAR"
    },
    {
      "bufferView": 1,
      "byteOffset": 4718304,
      "componentType": 5126,
      "count": 65532,
      "max": [
        268.50738525390625,
        906.42877197265625,
        190.94329833984375
      ],
      "min": [
        -246.70904541015625,
        -596.247314453125,
        -166.53936767578125
      ],
      "type": "VEC3"
    },
    {
      "bufferView": 1,
      "byteOffset": 5504688,
      "componentType": 5126,
      "count": 65532,
      "max": [
        0.99998724460601807,
        0.99998593330383301,
        0.99999397993087769
      ],
      "min": [
        -0.99997627735137939,
        -0.99998891353607178,
        -0.99999332427978516
      ],
      "type": "VEC3"
    },
    {
      "bufferView": 0,
      "byteOffset": 4236636,
      "componentType": 5125,
      "count": 341802,
      "max": [
        65531
      ],
      "min": [
        0
      ],
      "type": "SCALAR"
    },
    {
      "bufferView": 1,
      "byteOffset": 6291072,
      "componentType": 5126,
      "count": 65532,
      "max": [
        259.27108764648438,
        900.66021728515625,
        187.09196472167969
      ],
      "min": [
        -246.0333251953125,
        -611.0062255859375,
        -161.68032836914062
      ],
      "type": "VEC3"
    },
    {
      "bufferView": 1,
      "byteOffset": 7077456,
      "componentType": 5126,
      "count": 65532,
      "max": [
        0.99999046325683594,
        0.99997371435165405,
        0.99999868869781494
      ],
      "min": [
        -0.99993282556533813,
        -0.99994200468063354,
        -0.99986052513122559
      ],
      "type": "VEC3"
    },
    {
      "bufferView": 0,
      "byteOffset": 5603844,
      "componentType": 5125,
      "count": 341220,
      "max": [
        65531
      ],
      "min": [
        0
      ],
      "type": "SCALAR"
    },
    {
      "bufferView": 1,
      "byteOffset": 7863840,
      "componentType": 5126,
      "count": 65532,
      "max": [
        267.697509765625,
        906.6832275390625,
        191.08537292480469
      ],
      "min": [
        -258.88327026367188,
        -612.7440185546875,
        -166.28302001953125
      ],
      "type": "VEC3"
    },
    {
      "bufferView": 1,
      "byteOffset": 8650224,
      "componentType": 5126,
      "count": 65532,
      "max": [
        0.99994963407516479,
        0.99999690055847168,
        0.99999737739562988
      ],
      "min": [
        -0.99997729063034058,
        -0.9995688796043396,
        -0.9999963641166687
      ],
      "type": "VEC3"
    },
    {
      "bufferView": 0,
      "byteOffset": 6968724,
      "componentType": 5125,
      "count": 332586,
      "max": [
        65531
      ],
      "min": [
        0
      ],
      "type": "SCALAR"
    },
    {
      "bufferView": 1,
      "byteOffset": 9436608,
      "componentType": 5126,
      "count": 65532,
      "max": [
        237.03123474121094,
        908.1561279296875,
        191.23735046386719
      ],
      "min": [
        -260.24163818359375,
        -644.2138671875,
        -166.55192565917969
      ],
      "type": "VEC3"
    },
    {
      "bufferView": 1,
      "byteOffset": 10222992,
      "componentType": 5126,
      "count": 65532,
      "max": [
        0.99998724460601807,
        0.99998968839645386,
        0.99999642372131348
      ],
      "min": [
        -0.99999052286148071,
        -0.99997168779373169,
        -0.99999350309371948
      ],
      "type": "VEC3"
    },
    {
      "bufferView": 0,
      "byteOffset": 8299068,
      "componentType": 5125,
      "count": 325053,
      "max": [
        65531
      ],
      "min": [
        0
      ],
      "type": "SCALAR"
    },
    {
      "bufferView": 1,
      "byteOffset": 11009376,
      "componentType": 5126,
      "count": 59229,
      "max": [
        265.74029541015625,
        907.7802734375,
        191.16017150878906
      ],
      "min": [
        -255.74566650390625,
        -761.49932861328125,
        -166.33219909667969
      ],
      "type": "VEC3"
    },
    {
      "bufferView": 1,
      "byteOffset": 11720124,
      "componentType": 5126,
      "count": 59229,
      "max": [
        0.99998098611831665,
        0.99998104572296143,
        0.99998933076858521
      ],
      "min": [
        -0.9999854564666748,
        -0.99977213144302368,
        -0.99998283386230469
      ],
      "type": "VEC3"
    },
    {
      "bufferView": 0,
      "byteOffset": 9599280,
      "componentType": 5125,
      "count": 231144,
      "max": [
        59228
      ],
      "min": [
        0
      ],
      "type": "SCALAR"
    }
  ],
  "asset": {
    "extras": {
      "author": "peel-3d.com (https://sketchfab.com/peel-3d.com)",
      "license": "CC-BY-4.0 (http://creativecommons.org/licenses/by/4.0/)",
      "source": "https://sketchfab.com/models/5ed1b467e6f347c6b083ac3d4faf37fb",
      "title": "Full body scan with peel 3d"
    },
    "generator": "Sketchfab-3.18.5",
    "version": "2.0"
  },
  "bufferViews": [
    {
      "buffer": 0,
      "byteLength": 10523856,
      "byteOffset": 0,
      "name": "floatBufferViews",
      "target": 34963
    },
    {
      "buffer": 0,
      "byteLength": 12430872,
      "byteOffset": 10523856,
      "byteStride": 12,
      "name": "floatBufferViews",
      "target": 34962
    }
  ],
  "buffers": [
    {
      "byteLength": 22954728,
      "uri": "scene.bin"
    }
  ],
  "materials": [
    {
      "doubleSided": true,
      "emissiveFactor": [
        0,
        0,
        0
      ],
      "name": "Scene_-_Root",
      "pbrMetallicRoughness": {
        "baseColorFactor": [
          0.5,
          0.5,
          0.5,
          1
        ],
        "metallicFactor": 0,
        "roughnessFactor": 0.59999999999999998
      }
    }
  ],
  "meshes": [
    {
      "primitives": [
        {
          "attributes": {
            "NORMAL": 1,
            "POSITION": 0
          },
          "indices": 2,
          "material": 0,
          "mode": 4
        }
      ]
    },
    {
      "primitives": [
        {
          "attributes": {
            "NORMAL": 4,
            "POSITION": 3
          },
          "indices": 5,
          "material": 0,
          "mode": 4
        }
      ]
    },
    {
      "primitives": [
        {
          "attributes": {
            "NORMAL": 7,
            "POSITION": 6
          },
          "indices": 8,
          "material": 0,
          "mode": 4
        }
      ]
    },
    {
      "primitives": [
        {
          "attributes": {
            "NORMAL": 10,
            "POSITION": 9
          },
          "indices": 11,
          "material": 0,
          "mode": 4
        }
      ]
    },
    {
      "primitives": [
        {
          "attributes": {
            "NORMAL": 13,
            "POSITION": 12
          },
          "indices": 14,
          "material": 0,
          "mode": 4
        }
      ]
    },
    {
      "primitives": [
        {
          "attributes": {
            "NORMAL": 16,
            "POSITION": 15
          },
          "indices": 17,
          "material": 0,
          "mode": 4
        }
      ]
    },
    {
      "primitives": [
        {
          "attributes": {
            "NORMAL": 19,
            "POSITION": 18
          },
          "indices": 20,
          "material": 0,
          "mode": 4
        }
      ]
    },
    {
      "primitives": [
        {
          "attributes": {
            "NORMAL": 22,
            "POSITION": 21
          },
          "indices": 23,
          "material": 0,
          "mode": 4
        }
      ]
    }
  ],
  "nodes": [
    {
      "children": [
        1
      ],
      "name": "RootNode (gltf orientation matrix)",
      "rotation": [
        -0.70710678118654746,
        -0,
        -0,
        0.70710678118654757
      ]
    },
    {
      "children": [
        2
      ],
      "matrix": [
        -1,
        0,
        0,
        0,
        0,
        0,
        -1,
        0,
        0,
        -1,
        0,
        0,
        8.264678955078125,
        32.0284423828125,
        32.0284423828125,
        1
      ],
      "name": "RootNode (model correction matrix)"
    },
    {
      "children": [
        3,
        4,
        5,
        6,
        7,
        8,
        9,
        10
      ],
      "name": "full body final.stl.cleaner.materialmerger.gles"
    },
    {
      "mesh": 0,
      "name": ""
    },
    {
      "mesh": 1,
      "name": ""
    },
    {
      "mesh": 2,
      "name": ""
    },
    {
      "mesh": 3,
      "name": ""
    },
    {
      "mesh": 4,
      "name": ""
    },
    {
      "mesh": 5,
      "name": ""
    },
    {
      "mesh": 6,
      "name": ""
    },
    {
      "mesh": 7,
      "name": ""
    }
  ],
  "scene": 0,
  "scenes": [
    {
      "name": "OSG_Scene",
      "nodes": [
        0
      ]
    }
  ]
}

